<?xml version="1.0" encoding="utf-8"?>
<!-- Generator: Adobe Illustrator 16.0.0, SVG Export Plug-In . SVG Version: 6.00 Build 0)  -->
<!DOCTYPE svg PUBLIC "-//W3C//DTD SVG 1.1//EN" "http://www.w3.org/Graphics/SVG/1.1/DTD/svg11.dtd">
<svg version="1.1" id="Layer_1" focusable="false" xmlns="http://www.w3.org/2000/svg" xmlns:xlink="http://www.w3.org/1999/xlink"
	 x="0px" y="0px" width="595.281px" height="841.891px" viewBox="0 0 595.281 841.891" enable-background="new 0 0 595.281 841.891"
	 xml:space="preserve">
<rect x="31.14" y="161.445" fill="#FFFFFF" width="537" height="404"/>
<polyline fill="#FFFFFF" points="234.39,553.445 364.891,553.445 364.891,646.446 234.39,553.445 "/>
<path d="M0,197.715V532.56c0,41.042,33.369,74.41,74.41,74.41h167.424l145.215,108.824c2.559,1.977,5.465,2.791,8.256,2.791
	c7.207,0,13.951-5.697,13.951-13.952V606.97h111.615c41.042,0,74.41-33.368,74.41-74.41V197.715c0-41.041-33.368-74.41-74.41-74.41
	H74.41C33.369,123.305,0,156.674,0,197.715z M55.81,197.715c0-10.232,8.372-18.604,18.602-18.604h446.46
	c10.232,0,18.604,8.372,18.604,18.604V532.56c0,10.232-8.373,18.603-18.604,18.603H353.449v69.761l-78.13-58.6l-14.883-11.161
	H74.411c-10.23,0-18.602-8.372-18.602-18.603V197.715z"/>
</svg>
